<svg version="1.1"
     baseProfile="full"
     width="800" height="600"
     xmlns="http://www.w3.org/2000/svg"><rect width="100%" height="100%" fill="#202020" />
<polygon points="20,420 49,420 78,406 107,387 136,376 166,361 195,339 224,315 253,318 283,308 312,312 341,322 370,355 400,362 429,376 458,380 487,388 516,392 546,400 575,406 604,412 633,416 663,418 692,418 721,420 750,420 780,420 780,420 " style="fill:red;" />
<polygon points="20,20 49,20 78,20 107,20 136,20 166,20 195,20 224,34 253,53 283,64 312,79 341,101 370,139 400,156 429,176 458,187 487,200 516,204 546,214 575,220 604,227 633,232 663,233 692,234 721,235 750,236 780,236 780,20 " style="fill:green;" />
<line x1="20" y1="20" x2="20" y2="420" style="stroke:rgb(220,220,220);stroke-width:2" /><line x1="20" y1="420" x2="780" y2="420" style="stroke:rgb(220,220,220);stroke-width:2" /><rect x="28" y="15" width="265" height="20" fill="#6D454C" />
<text x="30" y="30" fill="white" font-size="16">fertőzöttek / gyógyultak | népesség: 1000</text>
<text x="780" y="440" fill="white" text-anchor="end" font-size="16">idő</text>
<text x="20" y="460" fill="white" text-anchor="start" text-decoration="underline" font-size="20">Szimuláció paraméterei</text>
<text x="25" y="490" fill="white" text-anchor="start" font-size="16">népesség mérete: 1000 fő</text>
<text x="25" y="515" fill="white" text-anchor="start" font-size="16">fertőzés sugara: 50 egység</text>
<text x="25" y="540" fill="white" text-anchor="start" font-size="16">fertőzés esélye: 10%</text>
<text x="25" y="565" fill="white" text-anchor="start" font-size="16">gyógyulás ideje: 6 egység</text>
</svg>